<?xml version="1.0" standalone="no"?>
<!DOCTYPE svg PUBLIC "-//W3C//DTD SVG 20010904//EN"
 "http://www.w3.org/TR/2001/REC-SVG-20010904/DTD/svg10.dtd">
<svg version="1.0" xmlns="http://www.w3.org/2000/svg"
 width="32.000000pt" height="32.000000pt" viewBox="0 0 32.000000 32.000000"
 preserveAspectRatio="xMidYMid meet">

<g transform="translate(0.000000,32.000000) scale(0.100000,-0.100000)"
fill="#000000" stroke="none">
<path d="M50 160 l0 -110 75 0 c72 0 75 1 63 19 -10 17 -9 23 6 40 11 12 26
21 34 21 12 0 12 4 -3 20 l-18 20 -27 -25 c-14 -14 -32 -25 -40 -25 -8 0 -29
-14 -47 -32 l-33 -32 0 102 0 102 100 0 99 0 4 -57 3 -58 2 63 2 62 -110 0
-110 0 0 -110z"/>
<path d="M80 221 c0 -27 19 -36 37 -18 18 18 9 37 -18 37 -12 0 -19 -7 -19
-19z"/>
<path d="M222 94 c-11 -12 -10 -17 2 -30 15 -14 17 -14 32 0 14 14 14 18 0 31
-18 18 -18 18 -34 -1z"/>
</g>
</svg>
