<?xml version="1.0" standalone="no"?>
<!DOCTYPE svg PUBLIC "-//W3C//DTD SVG 20010904//EN"
 "http://www.w3.org/TR/2001/REC-SVG-20010904/DTD/svg10.dtd">
<svg version="1.0" xmlns="http://www.w3.org/2000/svg"
 width="50.000000pt" height="50.000000pt" viewBox="0 0 50.000000 50.000000"
 preserveAspectRatio="xMidYMid meet">

<g transform="translate(0.000000,50.000000) scale(0.100000,-0.100000)"
fill="#000000" stroke="none">
<path d="M29 471 l-29 -29 0 -187 0 -187 29 -29 29 -29 190 0 189 0 27 26 26
27 0 189 0 190 -29 29 -29 29 -187 0 -187 0 -29 -29z m409 -23 c17 -17 17
-369 0 -386 -17 -17 -369 -17 -386 0 -8 8 -12 65 -12 189 0 148 3 180 16 193
13 13 45 16 193 16 124 0 181 -4 189 -12z"/>
<path d="M280 300 c-40 -60 -75 -110 -78 -110 -4 0 -23 17 -44 37 -37 36 -38
36 -58 18 -11 -10 -20 -23 -20 -29 0 -17 113 -126 131 -126 16 0 199 260 199
284 0 15 -29 36 -48 36 -5 0 -42 -49 -82 -110z"/>
</g>
</svg>
